<?xml version="1.0" standalone="no"?>
<!DOCTYPE svg PUBLIC "-//W3C//DTD SVG 20010904//EN"
 "http://www.w3.org/TR/2001/REC-SVG-20010904/DTD/svg10.dtd">
<svg version="1.0" xmlns="http://www.w3.org/2000/svg"
 width="450.000000pt" height="450.000000pt" viewBox="0 0 450.000000 450.000000"
 preserveAspectRatio="xMidYMid meet">
<metadata>
Created by potrace 1.14, written by Peter Selinger 2001-2017
</metadata>
<g transform="translate(0.000000,450.000000) scale(0.100000,-0.100000)"
fill="#000000" stroke="none">
<path d="M0 2250 l0 -2250 2250 0 2250 0 0 2250 0 2250 -2250 0 -2250 0 0
-2250z m1472 1276 c243 -58 473 -280 543 -521 61 -213 -36 -504 -238 -713
l-41 -42 61 -63 c198 -202 282 -487 215 -729 -45 -162 -152 -341 -266 -446
l-46 -42 -792 2 -793 3 -3 98 -3 97 765 0 764 0 51 67 c162 216 195 425 98
636 -55 121 -156 230 -274 298 l-78 44 -660 5 -660 5 -3 98 -3 97 764 0 763 0
26 28 c42 44 125 178 149 240 30 78 37 208 15 284 -38 128 -156 257 -303 330
l-86 43 -664 3 -663 2 0 95 0 95 653 0 c513 -1 664 -4 709 -14z m2500 -18
c180 -96 345 -308 388 -498 24 -112 -2 -273 -61 -379 -60 -106 -162 -221 -269
-303 l-35 -27 42 -83 c95 -189 158 -409 197 -688 18 -133 39 -439 35 -505 l-4
-50 -92 -3 -91 -3 -6 93 c-3 51 -8 147 -11 213 -16 338 -97 676 -211 882 l-35
63 -602 2 -602 3 -3 93 -3 92 604 0 604 0 69 49 c103 72 205 185 249 275 35
69 38 84 39 164 1 71 -3 97 -23 142 -34 80 -104 173 -172 230 -104 87 -42 80
-744 80 l-625 0 0 95 0 95 651 0 651 0 60 -32z"/>
</g>
</svg>
